<?xml version="1.0" encoding="utf-8"?>
<svg version="1.1" id="Layer_1" xmlns="http://www.w3.org/2000/svg" xmlns:xlink="http://www.w3.org/1999/xlink" x="0px" y="0px"
	 width="6000px" height="520px" viewBox="0 0 6000 520" style="enable-background:new 0 0 6000 520;" xml:space="preserve">

<stage camera="nudge" distance="1">
	<platform x="0" y="480" width="1360" height="40"/>
	<platform x="280" y="360" width="120" height="40"/>
	<platform x="520" y="320" width="120" height="40"/>
	<platform x="880" y="320" width="240" height="40"/>
	<platform x="1120" y="240" width="120" height="40"/>
	<platform x="1440" y="160" width="40" height="40"/>
	<platform x="1360" y="240" width="240" height="280"/>
	<platform x="1640" y="480" width="200" height="40"/>
	<platform x="2400" y="480" width="200" height="40"/>
	<platform x="5360" y="480" width="640" height="40"/>
	<platform x="440" y="320" width="40" height="160"/>
	<platform x="440" y="160" width="40" height="80"/>
	<platform x="680" y="240" width="160" height="40"/>
	<platform x="480" y="200" width="120" height="40"/>
	<platform x="160" y="240" width="160" height="40"/>
	<platform y="120" width="160" height="40"/>
	<platform x="2920" y="440" width="40" height="40"/>
	<platform x="3000" y="360" width="40" height="40"/>
	<platform x="3080" y="280" width="40" height="40"/>
	<platform x="3160" y="200" width="40" height="40"/>
	<platform x="3240" y="160" width="40" height="40"/>
	<platform x="3360" y="120" width="40" height="40"/>
	<platform x="3480" y="120" width="40" height="40"/>
	<platform x="3680" y="360" width="40" height="40"/>
	<platform x="3880" y="480" width="160" height="40"/>
	<platform x="4960" y="280" width="160" height="40"/>
	<platform x="4960" y="200" width="160" height="40"/>
	<platform x="4960" y="120" width="160" height="40"/>
	<platform x="4040" y="360" width="40" height="160"/>
	<platform x="4120" y="360" width="40" height="160"/>
	<platform x="4200" y="360" width="40" height="160"/>
	<platform x="4320" y="360" width="40" height="160"/>
	<platform x="4400" y="360" width="40" height="160"/>
	<platform x="4520" y="360" width="40" height="160"/>
	<platform x="4600" y="360" width="40" height="160"/>
	<platform x="4680" y="360" width="40" height="160"/>
	<platform x="4880" y="360" width="40" height="160"/>
	<platform x="4800" y="360" width="40" height="160"/>

	<pickup type="fireball" x="450" y="141" class="st2" width="40" height="40"/>

	<enemy type="jumping_jack" x="920" y="280" class="st0" width="40" height="40"/>
	<enemy type="jumping_jack" x="1000" y="280" class="st0" width="40" height="40"/>
	<enemy type="jumping_jack" x="1440" y="120" class="st0" width="40" height="40"/>
	<enemy type="jumping_jack" x="1760" y="320" class="st0" width="40" height="40"/>
	<enemy type="jumping_jack" x="2440" y="80" class="st0" width="40" height="40"/>
	<enemy type="jumping_jack" x="4040" y="320" class="st0" width="40" height="40"/>
	<enemy type="jumping_jack" x="4120" y="320" class="st0" width="40" height="40"/>
	<enemy type="jumping_jack" x="4200" y="320" class="st0" width="40" height="40"/>
	<enemy type="jumping_jack" x="4320" y="320" class="st0" width="40" height="40"/>
	<enemy type="jumping_jack" x="4400" y="320" class="st0" width="40" height="40"/>
	<enemy type="jumping_jack" x="4600" y="320" class="st0" width="40" height="40"/>
	<enemy type="jumping_jack" x="4680" y="320" class="st0" width="40" height="40"/>
	<enemy type="jumping_jack" x="4800" y="320" class="st0" width="40" height="40"/>
	<enemy type="jumping_jack" x="5360" y="380" class="st0" width="100" height="100"/>

	<player x="40" y="440" class="st1" width="40" height="40" color="pink"/>

		<line class="st3" x1="1680" y1="360" x2="2200" y2="360" id="line1"/>
		<platform x="1680" y="360" width="200" height="40" path="line1" speed="35"/>

		<line class="st3" x1="1280" y1="240" x2="1280" y2="-120" id="line2"/>
		<platform x="1280" y="40" width="40" height="200" path="line2" speed="45"/>

		<line class="st3" x1="1920" y1="280" x2="2440" y2="280" id="line3"/>
		<platform x="1920" y="280" width="200" height="40" path="line3" speed="50"/>

		<line class="st3" x1="2160" y1="200" x2="2680" y2="200" id="line4"/>
		<platform x="2160" y="200" width="200" height="40" path="line4" speed="55"/>

		<line class="st3" x1="2320" y1="120" x2="2840" y2="120" id="line5"/>
		<platform x="2320" y="120" width="200" height="40" path="line5" speed="60"/>

	<platform x="5960" y="280" width="40" height="200"/>
</stage>
</svg>
